<?xml version="1.0" standalone="no"?>
<!DOCTYPE svg PUBLIC "-//W3C//DTD SVG 20010904//EN"
 "http://www.w3.org/TR/2001/REC-SVG-20010904/DTD/svg10.dtd">
<svg version="1.0" xmlns="http://www.w3.org/2000/svg"
 width="512.000000pt" height="512.000000pt" viewBox="0 0 512.000000 512.000000"
 preserveAspectRatio="xMidYMid meet">
<metadata>
Created by potrace 1.14, written by Peter Selinger 2001-2017
</metadata>
<g transform="translate(0.000000,512.000000) scale(0.100000,-0.100000)"
fill="#000000" stroke="none">
<path d="M5090 5105 c0 -8 7 -15 15 -15 8 0 15 7 15 15 0 8 -7 15 -15 15 -8 0
-15 -7 -15 -15z"/>
<path d="M2780 4785 c0 -8 -7 -15 -15 -15 -11 0 -15 -12 -15 -45 0 -33 -4 -45
-15 -45 -12 0 -15 -14 -15 -70 0 -52 -3 -70 -14 -70 -10 0 -15 -32 -20 -137
-4 -76 -11 -139 -17 -141 -5 -2 -9 -10 -9 -18 0 -11 -17 -14 -75 -14 -82 0
-108 14 -121 65 -3 14 -10 25 -14 25 -5 0 -11 14 -15 30 -4 17 -13 30 -21 30
-9 0 -14 11 -14 30 0 20 -5 30 -15 30 -8 0 -15 9 -15 20 0 11 -6 20 -14 20 -7
0 -16 9 -19 20 -3 11 -12 20 -21 20 -10 0 -16 9 -16 25 0 16 -6 25 -15 25 -8
0 -15 9 -15 20 0 11 -7 20 -15 20 -8 0 -15 7 -15 15 0 8 -7 15 -15 15 -10 0
-15 10 -15 30 0 19 -5 30 -14 30 -7 0 -16 9 -19 20 -3 11 -12 20 -21 20 -9 0
-16 7 -16 16 0 26 -25 9 -28 -19 -2 -15 -10 -27 -18 -27 -10 0 -14 -14 -14
-55 0 -39 -4 -55 -13 -55 -11 0 -16 -29 -21 -117 -4 -73 -11 -120 -18 -124 -9
-6 -13 -65 -16 -198 -3 -105 -8 -191 -13 -191 -5 0 -9 -7 -9 -15 0 -8 -7 -15
-15 -15 -9 0 -18 -7 -21 -15 -7 -16 -64 -21 -64 -5 0 5 -16 12 -35 16 -20 3
-35 12 -35 20 0 9 -11 14 -30 14 -20 0 -30 5 -30 15 0 10 -10 15 -30 15 -20 0
-30 5 -30 15 0 8 -7 15 -15 15 -9 0 -18 6 -21 14 -3 8 -19 18 -35 21 -16 4
-29 13 -29 21 0 9 -11 14 -30 14 -20 0 -30 5 -30 15 0 10 -10 15 -30 15 -20 0
-30 5 -30 15 0 10 -11 15 -35 15 -24 0 -35 5 -35 15 0 8 -7 15 -15 15 -8 0
-15 7 -15 15 0 8 -14 17 -35 21 -20 3 -35 12 -35 20 0 9 -11 14 -30 14 -20 0
-30 5 -30 15 0 8 -9 15 -20 15 -11 0 -20 7 -20 15 0 10 -10 15 -30 15 -19 0
-30 5 -30 14 0 8 -14 17 -30 21 -17 4 -30 11 -30 16 0 5 -8 13 -17 16 -10 4
-24 13 -31 20 -7 7 -22 13 -33 13 -10 0 -19 7 -19 15 0 10 -10 15 -30 15 -20
0 -30 5 -30 15 0 10 -10 15 -30 15 -20 0 -30 5 -30 15 0 8 -7 15 -15 15 -9 0
-18 6 -21 14 -3 8 -18 18 -34 21 -16 3 -31 13 -34 21 -3 8 -17 14 -31 14 -16
0 -25 6 -25 15 0 10 -11 15 -35 15 -24 0 -35 5 -35 15 0 8 -7 15 -15 15 -8 0
-15 6 -15 14 0 15 -73 29 -108 19 -18 -4 -22 -12 -22 -49 0 -32 4 -44 15 -44
8 0 15 -9 15 -20 0 -11 7 -20 15 -20 8 0 15 -7 15 -15 0 -8 6 -15 14 -15 8 0
17 -13 21 -30 4 -16 13 -30 21 -30 8 0 14 -7 14 -15 0 -8 7 -15 15 -15 8 0 15
-9 15 -20 0 -11 7 -20 15 -20 8 0 15 -7 15 -15 0 -8 7 -15 15 -15 8 0 15 -7
15 -15 0 -8 7 -15 15 -15 8 0 15 -6 15 -13 0 -7 9 -20 20 -30 11 -9 20 -24 20
-32 0 -8 7 -15 15 -15 8 0 15 -9 15 -20 0 -11 7 -20 15 -20 8 0 15 -7 15 -15
0 -8 7 -15 15 -15 8 0 15 -7 15 -15 0 -8 7 -15 15 -15 8 0 15 -6 15 -13 0 -7
9 -20 20 -30 11 -9 20 -26 20 -37 0 -11 7 -20 15 -20 8 0 15 -7 15 -15 0 -8 7
-15 15 -15 8 0 15 -7 15 -15 0 -8 7 -15 15 -15 8 0 15 -5 15 -11 0 -7 16 -27
35 -46 19 -19 35 -43 35 -53 0 -11 7 -20 15 -20 8 0 15 -7 15 -15 0 -8 7 -15
15 -15 8 0 15 -7 15 -15 0 -8 7 -15 15 -15 8 0 15 -9 15 -20 0 -11 7 -20 15
-20 8 0 15 -7 15 -15 0 -8 9 -15 20 -15 11 0 20 -7 20 -15 0 -8 7 -15 15 -15
10 0 15 -10 15 -30 0 -20 5 -30 15 -30 8 0 15 -7 15 -15 0 -8 7 -15 15 -15 8
0 15 -9 15 -20 0 -11 7 -20 15 -20 8 0 15 -7 15 -15 0 -8 6 -15 14 -15 7 0 16
-9 19 -20 3 -11 12 -20 21 -20 9 0 16 -7 16 -15 0 -8 7 -15 15 -15 8 0 15 -7
15 -15 0 -8 7 -15 15 -15 10 0 15 -10 15 -30 0 -20 5 -30 15 -30 8 0 15 -7 15
-15 0 -8 6 -15 14 -15 7 0 16 -9 19 -20 3 -11 12 -20 21 -20 10 0 16 -9 16
-25 0 -16 -6 -25 -16 -25 -9 0 -18 -9 -21 -20 -3 -11 -12 -20 -19 -20 -8 0
-14 -6 -14 -14 0 -8 -7 -16 -15 -20 -8 -3 -15 -10 -15 -16 0 -6 -7 -18 -15
-26 -8 -9 -15 -24 -15 -35 0 -10 -7 -19 -15 -19 -8 0 -15 -7 -15 -15 0 -8 -7
-15 -15 -15 -10 0 -15 -10 -15 -30 0 -20 -5 -30 -15 -30 -8 0 -15 -9 -15 -20
0 -11 -9 -28 -20 -37 -11 -10 -20 -23 -20 -30 0 -7 -4 -13 -10 -13 -5 0 -12
-16 -16 -35 -3 -20 -12 -35 -20 -35 -9 0 -14 -11 -14 -30 0 -20 -5 -30 -15
-30 -10 0 -15 -10 -15 -30 0 -19 -5 -30 -14 -30 -8 0 -17 -13 -21 -29 -3 -16
-13 -32 -21 -35 -8 -3 -14 -19 -14 -36 0 -20 -5 -30 -15 -30 -10 0 -15 -10
-15 -30 0 -20 -5 -30 -15 -30 -8 0 -15 -9 -15 -20 0 -11 -7 -20 -15 -20 -10 0
-15 -10 -15 -30 0 -19 -5 -30 -14 -30 -8 0 -17 -13 -21 -30 -4 -17 -13 -30
-21 -30 -8 0 -14 -9 -14 -20 0 -11 -7 -20 -15 -20 -10 0 -15 -10 -15 -30 0
-20 -5 -30 -15 -30 -8 0 -15 -7 -15 -15 0 -8 -7 -15 -15 -15 -8 0 -15 -9 -15
-20 0 -11 -9 -28 -20 -37 -11 -10 -20 -23 -20 -30 0 -7 -4 -13 -9 -13 -5 0
-12 -14 -16 -30 -4 -16 -13 -30 -21 -30 -8 0 -14 -7 -14 -15 0 -8 -7 -15 -15
-15 -8 0 -15 -9 -15 -20 0 -11 -6 -20 -14 -20 -8 0 -17 -13 -21 -30 -4 -16
-13 -30 -21 -30 -8 0 -14 -7 -14 -15 0 -8 -7 -15 -15 -15 -8 0 -15 -7 -15 -15
0 -8 -7 -15 -15 -15 -8 0 -15 -9 -15 -20 0 -11 -7 -20 -15 -20 -10 0 -15 -10
-15 -30 0 -20 -5 -30 -15 -30 -8 0 -15 -7 -15 -15 0 -8 -6 -15 -14 -15 -14 0
-26 -29 -26 -66 0 -12 -7 -24 -15 -28 -21 -8 -23 -356 -1 -356 8 0 15 -16 18
-44 3 -25 13 -52 22 -61 9 -9 16 -25 16 -36 0 -10 7 -19 15 -19 8 0 15 -9 15
-20 0 -11 7 -20 15 -20 9 0 15 -9 15 -25 0 -14 7 -28 15 -31 8 -4 15 -12 15
-20 0 -8 7 -14 15 -14 8 0 15 -7 15 -15 0 -8 7 -15 15 -15 8 0 17 -14 21 -35
3 -20 12 -35 20 -35 9 0 14 -11 14 -30 0 -20 5 -30 15 -30 8 0 15 -7 15 -15 0
-10 10 -15 30 -15 19 0 30 -5 30 -14 0 -10 18 -15 61 -18 44 -3 64 -9 71 -21
5 -10 21 -17 38 -17 15 0 30 -6 32 -12 6 -16 106 -18 116 -2 4 6 36 14 71 17
35 3 67 10 70 15 3 6 32 13 64 17 38 5 57 12 57 21 0 9 12 14 35 14 24 0 35 5
35 15 0 8 7 15 15 15 8 0 15 7 15 15 0 10 10 15 30 15 20 0 30 5 30 15 0 8 9
15 20 15 11 0 28 9 37 20 10 11 23 20 30 20 7 0 13 7 13 15 0 10 10 15 30 15
20 0 30 5 30 15 0 8 7 15 15 15 9 0 18 6 21 14 3 8 19 18 35 21 16 4 29 11 29
16 0 5 7 9 15 9 8 0 15 7 15 15 0 8 14 17 35 21 20 3 35 12 35 20 0 9 11 14
30 14 20 0 30 5 30 15 0 11 12 15 45 15 32 0 45 4 45 14 0 10 18 15 61 18 33
2 64 9 68 16 4 7 95 12 290 14 216 2 285 6 289 16 4 14 62 17 62 2 0 -5 7 -10
15 -10 11 0 15 -12 15 -50 0 -36 4 -50 14 -50 10 0 15 -18 18 -61 2 -33 9 -64
15 -67 7 -4 15 -35 19 -70 4 -42 11 -62 20 -62 10 0 14 -14 14 -50 0 -38 4
-50 15 -50 11 0 15 -12 15 -45 0 -33 4 -45 15 -45 10 0 15 -10 15 -30 0 -20 5
-30 15 -30 8 0 15 -9 15 -20 0 -11 6 -20 14 -20 8 0 17 -14 21 -30 4 -17 13
-30 21 -30 8 0 14 -7 14 -15 0 -10 10 -15 30 -15 19 0 30 -5 30 -14 0 -8 15
-17 34 -20 19 -4 36 -12 39 -19 5 -17 209 -17 214 0 3 7 27 15 54 19 32 4 49
11 49 20 0 9 11 14 30 14 20 0 30 5 30 15 0 10 10 15 30 15 17 0 33 6 36 14 3
8 19 18 35 21 16 4 29 13 29 21 0 8 6 14 14 14 8 0 16 7 20 15 3 8 17 15 31
15 16 0 25 6 25 15 0 8 9 15 20 15 11 0 20 7 20 15 0 8 7 15 15 15 8 0 15 6
15 14 0 8 12 17 26 20 15 4 38 20 53 37 14 16 31 29 38 29 7 0 13 7 13 15 0 8
7 15 15 15 8 0 15 7 15 15 0 8 7 15 15 15 8 0 15 7 15 15 0 8 7 15 15 15 8 0
15 6 15 14 0 10 28 15 112 20 62 4 115 12 119 17 3 6 25 13 48 16 25 4 41 11
41 19 0 9 12 14 35 14 24 0 35 5 35 15 0 10 10 15 30 15 20 0 30 5 30 15 0 8
7 15 15 15 9 0 18 7 21 15 4 8 12 15 20 15 8 0 14 7 14 15 0 8 7 15 15 15 8 0
15 -7 15 -15 0 -8 7 -15 15 -15 10 0 15 -10 15 -30 0 -20 5 -30 15 -30 10 0
15 -10 15 -30 0 -20 5 -30 15 -30 8 0 15 -5 15 -11 0 -15 42 -59 58 -59 6 0
12 -7 12 -15 0 -8 7 -15 15 -15 8 0 15 -7 15 -15 0 -10 10 -15 30 -15 20 0 30
-5 30 -15 0 -10 10 -15 30 -15 20 0 30 5 30 15 0 8 -4 15 -9 15 -4 0 -11 35
-15 77 -3 42 -11 80 -17 83 -7 5 -11 100 -12 284 -2 255 -1 278 16 287 14 8
17 24 17 89 0 54 4 80 13 82 9 4 13 56 15 206 3 171 1 202 -11 202 -11 0 -16
18 -19 76 -2 41 -8 78 -15 82 -7 5 -12 70 -15 190 -2 122 -7 185 -15 190 -6 4
-14 37 -18 75 -5 47 -11 67 -21 67 -10 0 -14 13 -14 45 0 33 -4 45 -15 45 -10
0 -15 10 -15 30 0 18 -6 33 -15 36 -8 4 -15 17 -15 30 0 14 -7 27 -15 30 -8 4
-15 12 -15 20 0 8 -6 14 -14 14 -8 0 -17 14 -21 30 -4 17 -13 30 -21 30 -8 0
-14 9 -14 20 0 11 -7 20 -15 20 -8 0 -15 7 -15 15 0 8 -7 15 -15 15 -8 0 -15
7 -15 15 0 8 -7 15 -15 15 -8 0 -15 6 -15 13 0 7 -9 20 -20 30 -11 9 -20 24
-20 32 0 8 -7 15 -15 15 -8 0 -15 9 -15 20 0 11 -7 20 -15 20 -8 0 -15 7 -15
15 0 8 -7 15 -15 15 -8 0 -15 7 -15 15 0 8 -6 15 -14 15 -7 0 -16 9 -19 20 -3
11 -12 20 -21 20 -9 0 -16 7 -16 15 0 8 -7 15 -15 15 -8 0 -15 7 -15 15 0 8
-7 15 -15 15 -10 0 -15 10 -15 30 0 20 -5 30 -15 30 -8 0 -15 7 -15 15 0 9 -7
18 -15 21 -8 4 -15 12 -15 20 0 8 -9 22 -20 31 -11 10 -20 23 -20 30 0 7 -7
13 -15 13 -10 0 -15 10 -15 30 0 20 -5 30 -15 30 -8 0 -15 9 -15 20 0 11 -6
20 -14 20 -8 0 -17 14 -21 30 -4 17 -11 30 -16 30 -5 0 -9 7 -9 15 0 8 -7 15
-15 15 -8 0 -15 7 -15 16 0 9 -9 18 -20 21 -11 3 -20 12 -20 19 0 8 -7 14 -15
14 -10 0 -15 10 -15 30 0 23 -4 30 -20 30 -11 0 -20 7 -20 15 0 8 -7 15 -15
15 -8 0 -23 9 -32 20 -10 11 -23 20 -30 20 -7 0 -13 7 -13 15 0 8 -7 15 -15
15 -8 0 -15 7 -15 15 0 10 -10 15 -30 15 -20 0 -30 5 -30 15 0 10 -11 15 -35
15 -24 0 -35 5 -35 15 0 10 -10 15 -30 15 -16 0 -33 7 -38 16 -6 11 -28 18
-63 22 -30 3 -57 10 -61 16 -4 6 -47 13 -100 15 -55 2 -96 8 -100 15 -5 7 -59
12 -158 14 l-150 3 0 30 c0 18 -5 29 -14 29 -8 0 -17 13 -21 29 -3 16 -13 32
-21 35 -8 3 -14 12 -14 21 0 8 -7 15 -15 15 -10 0 -15 10 -15 30 0 20 -5 30
-15 30 -8 0 -15 7 -15 15 0 8 -7 15 -15 15 -8 0 -15 9 -15 20 0 11 -6 20 -14
20 -8 0 -17 14 -21 30 -4 17 -10 30 -15 30 -5 0 -11 14 -15 30 -4 17 -13 30
-21 30 -8 0 -14 9 -14 20 0 11 -7 20 -15 20 -8 0 -15 7 -15 15 0 8 -7 15 -15
15 -8 0 -15 7 -15 15 0 8 -9 15 -20 15 -11 0 -20 -7 -20 -15z m-2140 -225 c0
-5 -7 -10 -15 -10 -8 0 -15 5 -15 10 0 6 7 10 15 10 8 0 15 -4 15 -10z m30
-35 c0 -10 10 -15 30 -15 20 0 30 -5 30 -15 0 -8 9 -15 20 -15 11 0 20 -7 20
-15 0 -10 10 -15 30 -15 20 0 30 -5 30 -15 0 -8 6 -15 13 -15 7 0 20 -9 30
-20 9 -11 23 -20 31 -20 8 0 17 -13 21 -30 6 -28 9 -30 56 -30 35 0 49 -4 49
-14 0 -8 11 -17 25 -20 14 -4 25 -11 25 -16 0 -6 9 -10 20 -10 11 0 20 -7 20
-15 0 -8 7 -15 15 -15 11 0 15 -12 15 -50 0 -38 -4 -50 -15 -50 -8 0 -15 -9
-15 -20 0 -22 -3 -23 -37 -14 -13 4 -23 13 -23 20 0 8 -7 14 -15 14 -8 0 -15
7 -15 15 0 8 -9 15 -20 15 -11 0 -20 7 -20 15 0 8 -7 15 -15 15 -11 0 -15 12
-15 50 l0 50 -45 0 c-33 0 -45 4 -45 15 0 8 -9 15 -20 15 -11 0 -20 7 -20 15
0 8 -7 15 -15 15 -8 0 -15 7 -15 15 0 8 -7 15 -15 15 -8 0 -15 9 -15 20 0 11
-7 20 -15 20 -8 0 -15 7 -15 15 0 8 -7 15 -15 15 -8 0 -15 7 -15 15 0 8 -9 15
-20 15 -11 0 -20 7 -20 15 0 8 -7 15 -15 15 -8 0 -15 7 -15 15 0 8 7 15 15 15
8 0 15 -7 15 -15z m1660 -75 c0 -16 -4 -30 -10 -30 -5 0 -10 14 -10 30 0 17 5
30 10 30 6 0 10 -13 10 -30z m33 -62 c7 -27 -2 -68 -14 -68 -5 0 -9 20 -9 45
0 47 14 61 23 23z m37 -97 c0 -20 6 -30 20 -34 33 -8 23 -27 -15 -27 -35 0
-35 0 -35 45 0 33 4 45 15 45 10 0 15 -10 15 -29z m700 -21 c0 -5 -4 -10 -10
-10 -5 0 -10 5 -10 10 0 6 5 10 10 10 6 0 10 -4 10 -10z m30 -95 c0 -8 -4 -15
-10 -15 -5 0 -10 7 -10 15 0 8 5 15 10 15 6 0 10 -7 10 -15z m-1890 -30 c0 -8
9 -15 20 -15 11 0 20 -6 20 -14 0 -8 14 -17 30 -21 17 -4 30 -13 30 -21 0 -8
9 -14 20 -14 11 0 20 -7 20 -15 0 -8 7 -15 15 -15 10 0 15 -10 15 -30 0 -20
-5 -30 -15 -30 -8 0 -17 -14 -21 -35 -3 -20 -12 -35 -20 -35 -8 0 -14 -7 -14
-15 0 -8 -7 -15 -15 -15 -8 0 -15 9 -15 20 0 11 -7 20 -15 20 -8 0 -15 7 -15
15 0 8 -7 15 -15 15 -8 0 -15 7 -15 15 0 8 -7 15 -15 15 -8 0 -15 7 -15 15 0
8 -7 15 -15 15 -8 0 -15 7 -15 15 0 8 -6 15 -14 15 -8 0 -17 11 -20 25 -7 29
2 75 15 75 5 0 9 7 9 15 0 10 10 15 30 15 20 0 30 -5 30 -15z m1920 -80 c0
-14 -4 -25 -10 -25 -5 0 -10 11 -10 25 0 14 5 25 10 25 6 0 10 -11 10 -25z
m-1660 -110 c0 -8 7 -15 15 -15 9 0 18 -6 21 -14 3 -8 19 -18 35 -21 16 -4 29
-13 29 -21 0 -8 9 -14 20 -14 11 0 20 -7 20 -15 0 -9 9 -15 25 -15 21 0 25 -5
25 -30 0 -20 -5 -30 -15 -30 -10 0 -15 -11 -15 -35 0 -24 -5 -35 -15 -35 -10
0 -15 -10 -15 -30 0 -27 -3 -30 -30 -30 -20 0 -30 5 -30 15 0 8 -7 15 -15 15
-8 0 -15 7 -15 15 0 8 -7 15 -15 15 -8 0 -15 7 -15 16 0 9 -9 18 -20 21 -11 3
-20 12 -20 19 0 8 -7 14 -15 14 -8 0 -15 7 -15 15 0 8 -7 15 -15 15 -12 0 -15
13 -15 60 0 47 3 60 15 60 8 0 15 9 15 20 0 16 7 20 30 20 20 0 30 -5 30 -15z
m293 -231 c4 -8 19 -14 32 -14 16 0 25 -6 25 -15 0 -8 9 -15 20 -15 11 0 20
-7 20 -15 0 -8 7 -15 15 -15 8 0 15 -7 15 -15 0 -8 7 -15 15 -15 11 0 15 -12
15 -50 0 -38 -4 -50 -15 -50 -8 0 -15 -7 -15 -15 0 -8 -6 -15 -14 -15 -8 0
-17 -13 -21 -30 -5 -23 -12 -30 -31 -30 -15 0 -24 6 -24 15 0 8 -9 23 -20 32
-11 10 -20 23 -20 30 0 7 -7 13 -15 13 -8 0 -15 6 -15 14 0 8 -13 17 -30 21
-16 4 -30 13 -30 21 0 8 -7 14 -15 14 -10 0 -15 10 -15 30 0 20 5 30 15 30 10
0 15 10 15 30 0 20 5 30 15 30 9 0 15 9 15 21 0 18 4 20 28 14 15 -3 31 -13
35 -21z m1022 -154 c0 -7 -6 -15 -12 -17 -8 -3 -13 4 -13 17 0 13 5 20 13 18
6 -3 12 -11 12 -18z m345 -20 c0 -16 -4 -30 -10 -30 -5 0 -10 14 -10 30 0 17
5 30 10 30 6 0 10 -13 10 -30z m-280 -15 c0 -8 7 -15 15 -15 8 0 15 -7 15 -15
0 -8 7 -15 15 -15 7 0 18 -7 23 -17 14 -24 119 -32 128 -9 3 9 12 16 20 16 8
0 14 9 14 20 0 11 5 20 10 20 6 0 10 -13 10 -30 0 -16 -4 -30 -10 -30 -5 0
-10 -9 -10 -20 0 -11 4 -20 9 -20 5 0 12 -13 16 -30 6 -29 8 -30 66 -30 46 0
59 -3 59 -15 0 -9 7 -18 15 -21 11 -5 15 -22 15 -65 0 -43 4 -59 14 -59 9 0
16 -18 20 -50 5 -34 11 -50 21 -50 11 0 15 -12 15 -45 0 -33 4 -45 15 -45 8 0
15 -9 15 -20 0 -11 7 -20 15 -20 10 0 15 -10 15 -30 0 -20 5 -30 15 -30 8 0
15 -7 15 -15 0 -8 9 -15 20 -15 16 0 20 -7 20 -35 0 -24 5 -35 15 -35 10 0 15
-10 15 -30 0 -20 5 -30 15 -30 12 0 15 -13 15 -60 l0 -59 -62 -3 -63 -3 -3
-47 c-2 -34 -7 -48 -18 -48 -7 0 -14 -7 -14 -15 0 -8 -7 -15 -15 -15 -8 0 -15
-7 -15 -15 0 -8 -9 -15 -20 -15 -11 0 -20 -7 -20 -15 0 -9 -10 -15 -26 -15
-17 0 -28 -6 -31 -20 -3 -11 -12 -20 -19 -20 -9 0 -14 -11 -14 -30 0 -20 -5
-30 -15 -30 -8 0 -15 -9 -15 -20 0 -11 -7 -20 -15 -20 -8 0 -15 -7 -15 -15 0
-8 -9 -15 -20 -15 -11 0 -20 -7 -20 -15 0 -8 -7 -15 -15 -15 -8 0 -15 -7 -15
-15 0 -8 -7 -15 -15 -15 -8 0 -15 -7 -15 -15 0 -8 -7 -15 -15 -15 -10 0 -15
-11 -15 -35 0 -24 -5 -35 -15 -35 -8 0 -15 -7 -15 -15 0 -8 -7 -15 -15 -15 -8
0 -15 -7 -15 -15 0 -8 -6 -15 -14 -15 -7 0 -16 -9 -19 -20 -3 -11 -12 -20 -21
-20 -9 0 -16 -7 -16 -15 0 -8 -7 -15 -15 -15 -10 0 -15 -10 -15 -30 0 -20 -5
-30 -15 -30 -8 0 -15 7 -15 15 0 8 -7 15 -15 15 -8 0 -15 -7 -15 -15 0 -10
-11 -15 -35 -15 -24 0 -35 -5 -35 -15 0 -8 -7 -15 -15 -15 -8 0 -15 -7 -15
-15 0 -11 -12 -15 -45 -15 -31 0 -47 -5 -51 -15 -7 -17 -34 -21 -34 -5 0 14
-27 13 -32 -1 -2 -6 -25 -13 -51 -16 -26 -3 -47 -10 -47 -14 0 -5 -33 -9 -72
-9 -86 0 -118 -7 -118 -26 0 -11 -21 -14 -95 -14 -78 0 -95 -3 -95 -15 0 -11
-12 -15 -50 -15 -38 0 -50 -4 -50 -15 0 -12 -16 -15 -80 -15 -64 0 -80 -3 -80
-15 0 -10 -10 -15 -30 -15 -20 0 -30 5 -30 15 0 13 -24 15 -160 15 -136 0
-160 2 -160 15 0 8 -7 15 -15 15 -10 0 -15 10 -15 30 0 20 -5 30 -15 30 -8 0
-15 6 -15 13 0 7 -13 24 -29 38 -17 15 -33 38 -37 53 -3 14 -12 26 -20 26 -9
0 -14 11 -14 30 0 20 -5 30 -15 30 -10 0 -15 10 -15 30 0 18 -6 33 -15 36 -9
4 -15 19 -15 35 0 18 -5 29 -14 29 -10 0 -16 19 -21 65 -4 36 -11 65 -16 65
-16 0 -10 87 6 94 9 3 15 18 15 36 0 20 5 30 15 30 10 0 15 10 15 30 0 20 5
30 15 30 8 0 15 7 15 15 0 8 7 15 15 15 10 0 15 11 15 35 0 28 4 35 20 35 15
0 20 7 20 28 1 17 11 36 30 52 20 16 30 33 30 52 0 18 5 28 15 28 8 0 15 7 15
15 0 8 7 15 15 15 10 0 15 10 15 30 0 17 5 30 13 30 15 0 57 44 57 59 0 6 7
11 15 11 10 0 15 10 15 30 0 20 5 30 15 30 8 0 15 7 15 15 0 8 7 15 15 15 8 0
15 7 15 15 0 8 7 15 16 15 9 0 18 9 21 20 3 11 12 20 19 20 8 0 14 7 14 15 0
8 7 15 15 15 8 0 15 7 15 15 0 8 7 15 15 15 8 0 15 7 15 15 0 8 7 15 15 15 8
0 15 7 15 15 0 8 7 15 16 15 9 0 18 9 21 20 4 14 14 20 34 20 19 0 29 5 29 15
0 8 7 15 15 15 8 0 15 7 15 15 0 8 7 15 15 15 8 0 15 7 15 15 0 10 10 15 26
15 27 0 74 36 74 58 0 6 5 12 10 12 6 0 10 -7 10 -16 0 -9 9 -18 20 -21 11 -3
20 -12 20 -19 0 -8 7 -14 15 -14 8 0 15 -7 15 -15 0 -8 7 -15 15 -15 8 0 15
-7 15 -15 0 -8 9 -15 20 -15 11 0 20 -7 20 -15 0 -10 10 -15 30 -15 20 0 30
-5 30 -15 0 -11 11 -15 36 -15 l37 0 -6 41 c-3 23 -10 45 -15 48 -12 8 -23 81
-16 109 4 12 13 22 20 22 8 0 14 7 14 15 0 12 13 15 60 15 33 0 60 -4 60 -10
0 -5 7 -10 15 -10 8 0 15 5 15 10 0 6 7 10 15 10 8 0 15 -7 15 -15 0 -10 11
-15 35 -15 24 0 35 -5 35 -15 0 -11 12 -15 45 -15 32 0 45 -4 45 -14 0 -17 44
-26 127 -26 56 0 66 3 70 20 4 14 14 20 34 20 19 0 29 5 29 15 0 8 -7 15 -15
15 -11 0 -15 12 -15 50 0 38 -4 50 -15 50 -8 0 -15 7 -15 15 0 8 -7 15 -15 15
-8 0 -15 7 -15 15 0 10 10 15 30 15 20 0 30 -5 30 -15z m-900 -100 c0 -33 -4
-45 -15 -45 -8 0 -15 -7 -15 -15 0 -8 -7 -15 -15 -15 -10 0 -15 10 -15 30 0
19 5 30 14 30 8 0 17 14 21 30 10 45 25 36 25 -15z m2020 -1210 c0 -8 -7 -15
-15 -15 -8 0 -15 7 -15 15 0 8 7 15 15 15 8 0 15 -7 15 -15z m-40 -35 c0 -5
-11 -10 -25 -10 -14 0 -25 5 -25 10 0 6 11 10 25 10 14 0 25 -4 25 -10z m70
-110 c0 -20 5 -30 15 -30 10 0 15 -11 15 -35 0 -24 5 -35 14 -35 8 0 17 -13
21 -30 4 -16 13 -30 21 -30 9 0 14 -11 14 -35 0 -24 5 -35 15 -35 10 0 15 -10
15 -30 0 -20 5 -30 15 -30 8 0 15 -7 15 -15 0 -8 7 -15 15 -15 11 0 15 -12 15
-50 0 -38 4 -50 15 -50 11 0 15 -12 15 -44 0 -30 -5 -46 -15 -50 -11 -4 -15
-21 -15 -66 0 -47 -3 -60 -15 -60 -10 0 -15 -10 -15 -30 0 -20 -5 -30 -15 -30
-8 0 -15 -7 -15 -15 0 -8 -6 -15 -13 -15 -7 0 -20 -9 -30 -20 -9 -11 -26 -20
-37 -20 -11 0 -20 -7 -20 -15 0 -10 -10 -15 -30 -15 -20 0 -30 -5 -30 -15 0
-13 -21 -15 -125 -15 -104 0 -125 2 -125 15 0 8 -9 15 -20 15 -18 0 -20 7 -20
60 0 45 4 61 17 68 11 7 18 27 21 66 3 39 9 56 18 56 8 0 14 7 14 15 0 8 7 15
15 15 10 0 15 11 15 35 0 24 5 35 15 35 10 0 15 10 15 30 0 23 4 30 20 30 11
0 20 6 20 14 0 8 7 16 15 20 11 4 15 21 15 66 0 47 3 60 15 60 10 0 15 11 15
35 0 24 5 35 15 35 10 0 15 10 15 30 0 20 5 30 15 30 12 0 15 14 15 65 0 51 3
65 15 65 10 0 15 -10 15 -30z"/>
<path d="M2464 3125 c-4 -9 -19 -15 -35 -15 -19 0 -29 -5 -29 -15 0 -8 -7 -15
-16 -15 -9 0 -18 -9 -21 -20 -3 -11 -12 -20 -19 -20 -8 0 -14 -7 -14 -15 0 -8
-7 -15 -15 -15 -10 0 -15 -10 -15 -30 0 -20 -5 -30 -15 -30 -12 0 -15 -16 -15
-85 0 -69 3 -85 15 -85 10 0 15 -10 15 -30 0 -20 5 -30 15 -30 8 0 15 -6 15
-12 0 -16 44 -58 59 -58 6 0 11 -7 11 -15 0 -10 11 -15 35 -15 24 0 35 -5 35
-15 0 -12 13 -15 60 -15 47 0 60 3 60 15 0 10 11 15 35 15 24 0 35 5 35 14 0
8 14 17 30 21 17 4 30 13 30 21 0 8 6 14 14 14 8 0 17 14 21 30 4 17 13 30 21
30 21 0 21 218 0 226 -8 3 -18 19 -21 35 -4 16 -13 29 -21 29 -8 0 -14 6 -14
14 0 8 -13 17 -30 21 -16 4 -30 13 -30 21 0 9 -11 14 -29 14 -16 0 -31 6 -35
15 -4 11 -21 15 -66 15 -45 0 -62 -4 -66 -15z m36 -100 c0 -8 -7 -15 -15 -15
-8 0 -15 7 -15 15 0 8 7 15 15 15 8 0 15 -7 15 -15z m90 0 c0 -8 -7 -15 -15
-15 -8 0 -15 7 -15 15 0 8 7 15 15 15 8 0 15 -7 15 -15z"/>
<path d="M0 15 c0 -8 7 -15 15 -15 8 0 15 7 15 15 0 8 -7 15 -15 15 -8 0 -15
-7 -15 -15z"/>
</g>
</svg>
